<?xml version="1.0" encoding="utf-8"?>
<!-- Generator: Adobe Illustrator 16.0.0, SVG Export Plug-In . SVG Version: 6.00 Build 0)  -->
<!DOCTYPE svg PUBLIC "-//W3C//DTD SVG 1.1//EN" "http://www.w3.org/Graphics/SVG/1.1/DTD/svg11.dtd">
<svg version="1.1" id="Layer_1" xmlns="http://www.w3.org/2000/svg" xmlns:xlink="http://www.w3.org/1999/xlink" x="0px" y="0px"
	 width="412.001px" height="412px" viewBox="0 0 412.001 412" enable-background="new 0 0 412.001 412" xml:space="preserve">
<g>
	<path fill="#FFDA00" d="M412.001,392c0,11.045-8.954,20-20,20H20c-11.046,0-20-8.955-20-20V20C0,8.954,8.954,0,20,0h372.001
		c11.046,0,20,8.954,20,20V392z"/>
	<g>
		<path opacity="0.5" fill="#FFFFFF" d="M50.631,346.793c-14.641,0-26.552-11.912-26.552-26.553S35.99,293.69,50.631,293.69h4.53
			V116.805c0-18.843,15.33-34.173,34.173-34.173h41.086c4.359-10.233,14.517-17.426,26.322-17.426
			c10.471,0,19.645,5.658,24.626,14.079c4.983-8.421,14.159-14.079,24.632-14.079c10.472,0,19.646,5.658,24.629,14.077
			c4.982-8.419,14.156-14.077,24.627-14.077c11.807,0,21.966,7.192,26.325,17.426h41.086c18.843,0,34.173,15.33,34.173,34.173
			V293.69h4.531c14.641,0,26.552,11.91,26.552,26.551s-11.911,26.553-26.552,26.553H50.631z"/>
		<g>
			<path fill="#EC1C24" d="M171.162,93.806c0,7.966-6.455,14.424-14.42,14.424c-7.969,0-14.422-6.458-14.422-14.424
				c0-7.967,6.453-14.426,14.422-14.426C164.707,79.38,171.162,85.839,171.162,93.806z"/>
			<path fill="#EC1C24" d="M220.424,93.806c0,7.966-6.461,14.424-14.424,14.424c-7.969,0-14.426-6.458-14.426-14.424
				c0-7.967,6.457-14.426,14.426-14.426C213.963,79.38,220.424,85.839,220.424,93.806z"/>
			<circle fill="#EC1C24" cx="255.258" cy="93.806" r="14.424"/>
		</g>
		<path fill="#895D3B" d="M342.667,307.473c0,11.045-8.954,20-20,20H89.334c-11.046,0-20-8.955-20-20V116.805
			c0-11.046,8.954-20,20-20h233.333c11.046,0,20,8.954,20,20V307.473z"/>
		<path fill="#E191BE" d="M342.667,145.472c0,11.046-8.954,20-20,20H89.334c-11.046,0-20-8.954-20-20v-28.667
			c0-11.046,8.954-20,20-20h233.333c11.046,0,20,8.954,20,20V145.472z"/>
		<g>
			<g>
				
					<line fill="none" stroke="#29B473" stroke-width="24.7572" stroke-linecap="round" stroke-linejoin="round" stroke-miterlimit="10" x1="50.631" y1="320.241" x2="361.371" y2="320.241"/>
			</g>
		</g>
		<g>
			<path fill="#F7C480" d="M316.668,262.288c-0.065,0-0.133,0-0.198,0c-7.356,0.025-14.303,2.832-21.021,5.545
				c-5.67,2.289-11.025,4.451-15.54,4.455c-0.003,0-0.006,0-0.009,0c-3.912,0-8.787-1.945-13.947-4.008
				c-7.035-2.809-15.009-5.992-24.163-5.992c-12.163,0-19.501,3.416-25.397,6.162c-4.606,2.145-8.246,3.838-13.691,3.838
				c-3.033,0-6.232-1.492-10.285-3.383c-6.32-2.947-14.186-6.617-25.756-6.617c-9.583,0-17.565,3.16-24.61,5.947
				c-5.496,2.174-10.243,4.053-14.63,4.053c-3.381,0-7.787-1.92-12.454-3.953c-6.505-2.834-13.878-6.047-22.352-6.047
				c-10.015,0-17.939,3.162-23.28,6.236v15.809c0.577-0.307,1.118-0.701,1.599-1.189c0.079-0.08,8.297-8.047,21.682-8.047
				c5.712,0,11.484,2.516,17.065,4.947c5.702,2.484,11.598,5.053,17.74,5.053c6.914,0,13.313-2.533,19.502-4.98
				c6.235-2.469,12.684-5.02,19.738-5.02c8.633,0,14.494,2.734,20.163,5.379c4.87,2.271,9.906,4.621,15.878,4.621
				c8.378,0,13.918-2.578,19.275-5.072c5.442-2.535,10.583-4.928,19.813-4.928c6.606,0,13.035,2.566,19.253,5.051
				c6.095,2.434,12.396,4.949,18.857,4.949c0.006,0,0.014,0,0.021,0c7.083-0.006,13.897-2.758,20.485-5.418
				c5.814-2.348,11.305-4.564,16.11-4.582c0.051,0,0.102,0,0.153,0c15.18,0,24.286,7.967,24.637,8.279
				c0.417,0.381,0.881,0.676,1.36,0.932v-15.428C336.895,265.725,328.009,262.288,316.668,262.288z"/>
			<path fill="#F7C480" d="M92.614,233.096c5.712,0,11.484,2.516,17.065,4.947c5.702,2.484,11.598,5.053,17.74,5.053
				c6.914,0,13.313-2.533,19.502-4.98c6.235-2.469,12.684-5.02,19.738-5.02c8.633,0,14.494,2.734,20.163,5.379
				c4.87,2.271,9.906,4.621,15.878,4.621c8.378,0,13.918-2.578,19.275-5.072c5.442-2.535,10.583-4.928,19.813-4.928
				c6.606,0,13.035,2.566,19.253,5.051c6.095,2.434,12.396,4.949,18.857,4.949c0.006,0,0.014,0,0.021,0
				c7.083-0.006,13.897-2.758,20.485-5.418c5.814-2.348,11.305-4.564,16.11-4.582c0.051,0,0.102,0,0.153,0
				c15.18,0,24.286,7.967,24.637,8.279c0.417,0.381,0.881,0.676,1.36,0.932v-15.428c-5.772-3.154-14.658-6.592-25.999-6.592
				c-0.065,0-0.133,0-0.198,0c-7.356,0.025-14.303,2.832-21.021,5.545c-5.67,2.289-11.025,4.451-15.54,4.455
				c-0.003,0-0.006,0-0.009,0c-3.912,0-8.787-1.945-13.947-4.008c-7.035-2.809-15.009-5.992-24.163-5.992
				c-12.163,0-19.501,3.416-25.397,6.162c-4.606,2.145-8.246,3.838-13.691,3.838c-3.033,0-6.232-1.492-10.285-3.383
				c-6.32-2.947-14.186-6.617-25.756-6.617c-9.583,0-17.565,3.16-24.61,5.947c-5.496,2.174-10.243,4.053-14.63,4.053
				c-3.381,0-7.787-1.92-12.454-3.953c-6.505-2.834-13.878-6.047-22.352-6.047c-10.015,0-17.939,3.162-23.28,6.236v15.809
				c0.577-0.307,1.118-0.701,1.599-1.189C71.012,241.063,79.229,233.096,92.614,233.096z"/>
		</g>
		<g>
			<path fill="#E191BE" d="M315.334,107.735c-15.096,0-27.334,12.331-27.334,27.543c0-15.212-12.238-27.543-27.333-27.543
				s-27.333,12.331-27.333,27.543c0-15.212-12.238-27.543-27.334-27.543c-15.095,0-27.333,12.331-27.333,27.543
				c0-15.212-12.238-27.543-27.333-27.543c-15.096,0-27.333,12.331-27.333,27.543c0-15.212-12.238-27.543-27.334-27.543
				c-15.095,0-27.333,12.331-27.333,27.543v37.077c0,15.211,12.238,27.543,27.333,27.543c15.096,0,27.334-12.333,27.334-27.543
				c0,15.211,12.237,27.543,27.333,27.543c15.095,0,27.333-12.333,27.333-27.543c0,15.211,12.238,27.543,27.333,27.543
				c15.096,0,27.334-12.333,27.334-27.543c0,15.211,12.238,27.543,27.333,27.543S288,187.566,288,172.355
				c0,15.211,12.238,27.543,27.334,27.543c15.095,0,27.333-12.333,27.333-27.543v-37.077
				C342.667,120.066,330.429,107.735,315.334,107.735z"/>
		</g>
		<g>
			<circle fill="#FFFFFF" cx="102.97" cy="144.316" r="8.75"/>
			<circle fill="#FFFFFF" cx="154.485" cy="144.316" r="8.75"/>
			<circle fill="#FFFFFF" cx="206.001" cy="144.316" r="8.75"/>
			<circle fill="#FFFFFF" cx="257.518" cy="144.316" r="8.75"/>
			<circle fill="#FFFFFF" cx="309.033" cy="144.316" r="8.75"/>
		</g>
	</g>
</g>
</svg>
